<?xml version="1.0" encoding="utf-8" standalone="no"?>
<!DOCTYPE svg PUBLIC "-//W3C//DTD SVG 1.1//EN"
  "http://www.w3.org/Graphics/SVG/1.1/DTD/svg11.dtd">
<!-- Created with matplotlib (http://matplotlib.org/) -->
<svg height="226pt" version="1.1" viewBox="0 0 396 226" width="396pt" xmlns="http://www.w3.org/2000/svg" xmlns:xlink="http://www.w3.org/1999/xlink">
 <defs>
  <style type="text/css">
*{stroke-linecap:butt;stroke-linejoin:round;}
  </style>
 </defs>
 <g id="figure_1">
  <g id="patch_1">
   <path d="
M0 226.772
L396.85 226.772
L396.85 0
L0 0
z
" style="fill:#ffffff;"/>
  </g>
  <g id="axes_1">
   <g id="patch_2">
    <path d="
M49.6063 204.094
L357.165 204.094
L357.165 22.6772
L49.6063 22.6772
z
" style="fill:#ffffff;"/>
   </g>
   <g id="line2d_1">
    <path clip-path="url(#p579cb87372)" d="
M49.6063 113.386
L52.6819 104.33
L55.7575 95.3648
L58.8331 86.5796
L61.9087 78.0622
L64.9843 69.8978
L68.0598 62.1679
L71.1354 54.9497
L74.211 48.3154
L77.2866 42.3313
L80.3622 37.0571
L83.4378 32.5456
L86.5134 28.8418
L89.589 25.9828
L92.6646 23.997
L95.7402 22.9044
L98.8157 22.7158
L101.891 23.4332
L104.967 25.0494
L108.043 27.5482
L111.118 30.9047
L114.194 35.0853
L117.269 40.0482
L120.345 45.7439
L123.42 52.1155
L126.496 59.0992
L129.572 66.6254
L132.647 74.6188
L135.723 82.9995
L138.798 91.6838
L141.874 100.585
L144.95 109.614
L148.025 118.681
L151.101 127.695
L154.176 136.566
L157.252 145.205
L160.328 153.526
L163.403 161.447
L166.479 168.887
L169.554 175.772
L172.63 182.034
L175.706 187.611
L178.781 192.445
L181.857 196.49
L184.932 199.704
L188.008 202.056
L191.083 203.522
L194.159 204.088
L197.235 203.747
L200.31 202.503
L203.386 200.369
L206.461 197.365
L209.537 193.523
L212.613 188.88
L215.688 183.482
L218.764 177.384
L221.839 170.647
L224.915 163.338
L227.991 155.529
L231.066 147.3
L234.142 138.731
L237.217 129.91
L240.293 120.923
L243.369 111.861
L246.444 102.814
L249.52 93.8726
L252.595 85.1263
L255.671 76.6624
L258.746 68.5655
L261.822 60.9163
L264.898 53.7915
L267.973 47.262
L271.049 41.3933
L274.124 36.2439
L277.2 31.8652
L280.276 28.3011
L283.351 25.5871
L286.427 23.7504
L289.502 22.8093
L292.578 22.7732
L295.654 23.6425
L298.729 25.4084
L301.805 28.0534
L304.88 31.551
L307.956 35.8663
L311.031 40.9561
L314.107 46.7696
L317.183 53.2488
L320.258 60.3288
L323.334 67.9389
L326.409 76.0031
L329.485 84.4408
L332.561 93.1678
L335.636 102.097
L338.712 111.138
L341.787 120.203
L344.863 129.199
L347.939 138.037
L351.014 146.629
L354.09 154.888" style="fill:none;stroke:#0000ff;stroke-linecap:square;"/>
   </g>
   <g id="line2d_2">
    <path clip-path="url(#p579cb87372)" d="
M49.6063 113.386
L52.6819 95.3648
L55.7575 78.0622
L58.8331 62.1679
L61.9087 48.3154
L64.9843 37.0571
L68.0598 28.8418
L71.1354 23.997
L74.211 22.7158
L77.2866 25.0494
L80.3622 30.9047
L83.4378 40.0482
L86.5134 52.1155
L89.589 66.6254
L92.6646 82.9995
L95.7402 100.585
L98.8157 118.681
L101.891 136.566
L104.967 153.526
L108.043 168.887
L111.118 182.034
L114.194 192.445
L117.269 199.704
L120.345 203.522
L123.42 203.747
L126.496 200.369
L129.572 193.523
L132.647 183.482
L135.723 170.647
L138.798 155.529
L141.874 138.731
L144.95 120.923
L148.025 102.814
L151.101 85.1263
L154.176 68.5655
L157.252 53.7915
L160.328 41.3933
L163.403 31.8652
L166.479 25.5871
L169.554 22.8093
L172.63 23.6425
L175.706 28.0534
L178.781 35.8663
L181.857 46.7696
L184.932 60.3288
L188.008 76.0031
L191.083 93.1678
L194.159 111.138
L197.235 129.199
L200.31 146.629
L203.386 162.733
L206.461 176.871
L209.537 188.477
L212.613 197.09
L215.688 202.365
L218.764 204.094
L221.839 202.206
L224.915 196.777
L227.991 188.024
L231.066 176.295
L234.142 162.058
L237.217 145.88
L240.293 128.408
L243.369 110.336
L246.444 92.3859
L249.52 75.273
L252.595 59.6796
L255.671 46.2273
L258.746 35.4524
L261.822 27.7845
L264.898 23.5292
L267.973 22.8562
L271.049 25.7923
L274.124 32.2205
L277.2 41.8845
L280.276 54.3991
L283.351 69.2653
L286.427 85.8904
L289.502 103.612
L292.578 121.723
L295.654 139.501
L298.729 156.239
L301.805 171.268
L304.88 183.989
L307.956 193.896
L311.031 200.593
L314.107 203.813
L317.183 203.429
L320.258 199.454
L323.334 192.049
L326.409 181.507
L329.485 168.249
L332.561 152.805
L335.636 135.788
L338.712 117.879
L341.787 99.7907
L344.863 82.2442
L347.939 65.9392
L351.014 51.5258
L354.09 39.5786" style="fill:none;stroke:#008000;stroke-linecap:square;"/>
   </g>
   <g id="line2d_3">
    <path clip-path="url(#p579cb87372)" d="
M49.6063 113.386
L52.6819 86.5796
L55.7575 62.1679
L58.8331 42.3313
L61.9087 28.8418
L64.9843 22.9044
L68.0598 25.0494
L71.1354 35.0853
L74.211 52.1155
L77.2866 74.6188
L80.3622 100.585
L83.4378 127.695
L86.5134 153.526
L89.589 175.772
L92.6646 192.445
L95.7402 202.056
L98.8157 203.747
L101.891 197.365
L104.967 183.482
L108.043 163.338
L111.118 138.731
L114.194 111.861
L117.269 85.1263
L120.345 60.9163
L123.42 41.3933
L126.496 28.3011
L129.572 22.8093
L132.647 25.4084
L135.723 35.8663
L138.798 53.2488
L141.874 76.0031
L144.95 102.097
L148.025 129.199
L151.101 154.888
L154.176 176.871
L157.252 193.182
L160.328 202.365
L163.403 203.6
L166.479 196.777
L169.554 182.504
L172.63 162.058
L175.706 137.263
L178.781 110.336
L181.857 83.6811
L184.932 59.6796
L188.008 40.4756
L191.083 27.7845
L194.159 22.7398
L197.235 25.7923
L200.31 36.6693
L203.386 54.3991
L206.461 77.398
L209.537 103.612
L212.613 130.698
L215.688 156.239
L218.764 177.951
L221.839 193.896
L224.915 202.649
L227.991 203.429
L231.066 196.165
L234.142 181.507
L237.217 160.764
L240.293 135.788
L243.369 108.812
L246.444 82.2442
L249.52 58.4581
L252.595 39.5786
L255.671 27.292
L258.746 22.696
L261.822 26.2009
L264.898 37.4939
L267.973 55.5661
L271.049 78.8031
L274.124 105.129
L277.2 132.193
L280.276 157.577
L283.351 179.013
L286.427 194.587
L289.502 202.908
L292.578 203.231
L295.654 195.53
L298.729 180.49
L301.805 159.456
L304.88 134.307
L307.956 107.289
L311.031 80.8161
L314.107 57.2521
L317.183 38.7024
L320.258 26.8239
L323.334 22.6777
L326.409 26.6342
L329.485 38.34
L332.561 56.7494
L335.636 80.218
L338.712 106.649
L341.787 133.682
L344.863 158.902
L347.939 180.057
L351.014 195.255
L354.09 203.141" style="fill:none;stroke:#ff0000;stroke-linecap:square;"/>
   </g>
   <g id="line2d_4">
    <path clip-path="url(#p579cb87372)" d="
M49.6063 113.386
L52.6819 78.0622
L55.7575 48.3154
L58.8331 28.8418
L61.9087 22.7158
L64.9843 30.9047
L68.0598 52.1155
L71.1354 82.9995
L74.211 118.681
L77.2866 153.526
L80.3622 182.034
L83.4378 199.704
L86.5134 203.747
L89.589 193.523
L92.6646 170.647
L95.7402 138.731
L98.8157 102.814
L101.891 68.5655
L104.967 41.3933
L108.043 25.5871
L111.118 23.6425
L114.194 35.8663
L117.269 60.3288
L120.345 93.1678
L123.42 129.199
L126.496 162.733
L129.572 188.477
L132.647 202.365
L135.723 202.206
L138.798 188.024
L141.874 162.058
L144.95 128.408
L148.025 92.3859
L151.101 59.6796
L154.176 35.4524
L157.252 23.5292
L160.328 25.7923
L163.403 41.8845
L166.479 69.2653
L169.554 103.612
L172.63 139.501
L175.706 171.268
L178.781 193.896
L181.857 203.813
L184.932 199.454
L188.008 181.507
L191.083 152.805
L194.159 117.879
L197.235 82.2442
L200.31 51.5258
L203.386 30.5738
L206.461 22.696
L209.537 29.1361
L212.613 48.8773
L215.688 78.8031
L218.764 114.189
L221.839 149.448
L224.915 179.013
L227.991 198.217
L231.066 204.029
L234.142 195.53
L237.217 174.062
L240.293 143.014
L243.369 107.289
L246.444 72.527
L249.52 44.2152
L252.595 26.8239
L255.671 23.0989
L258.746 33.6281
L261.822 56.7494
L264.898 88.8123
L267.973 124.755
L271.049 158.902
L274.124 185.864
L277.2 201.383
L280.276 203.009
L283.351 190.485
L286.427 165.79
L289.502 132.82
L292.578 96.7829
L295.654 63.3667
L298.729 37.8473
L301.805 24.2539
L304.88 24.7324
L307.956 39.2073
L311.031 65.3934
L314.107 99.1565
L317.183 135.166
L320.258 167.737
L323.334 191.727
L326.409 203.349
L329.485 200.767
L332.561 184.39
L335.636 156.803
L338.712 122.361
L341.787 86.5026
L344.863 54.8881
L347.939 32.5091
L351.014 22.8987
L354.09 27.5743" style="fill:none;stroke:#00bfbf;stroke-linecap:square;"/>
   </g>
   <g id="matplotlib.axis_1">
    <g id="xtick_1">
     <g id="line2d_5">
      <defs>
       <path d="
M0 0
L0 -4" id="m93b0483c22" style="stroke:#000000;stroke-width:0.5;"/>
      </defs>
      <g>
       <use style="stroke:#000000;stroke-width:0.5;" x="49.6062992126" xlink:href="#m93b0483c22" y="204.094488189"/>
      </g>
     </g>
     <g id="line2d_6">
      <defs>
       <path d="
M0 0
L0 4" id="m741efc42ff" style="stroke:#000000;stroke-width:0.5;"/>
      </defs>
      <g>
       <use style="stroke:#000000;stroke-width:0.5;" x="49.6062992126" xlink:href="#m741efc42ff" y="22.6771653543"/>
      </g>
     </g>
     <g id="text_1">
      <!-- 0 -->
      <defs>
       <path d="
M4.15625 35.2969
Q4.15625 48 6.76562 55.7344
Q9.375 63.4844 14.5156 67.6719
Q19.6719 71.875 27.4844 71.875
Q33.25 71.875 37.5938 69.5469
Q41.9375 67.2344 44.7656 62.8594
Q47.6094 58.5 49.2188 52.2188
Q50.8281 45.9531 50.8281 35.2969
Q50.8281 22.7031 48.2344 14.9688
Q45.6562 7.23438 40.5 3
Q35.3594 -1.21875 27.4844 -1.21875
Q17.1406 -1.21875 11.2344 6.20312
Q4.15625 15.1406 4.15625 35.2969
M13.1875 35.2969
Q13.1875 17.6719 17.3125 11.8281
Q21.4375 6 27.4844 6
Q33.5469 6 37.6719 11.8594
Q41.7969 17.7188 41.7969 35.2969
Q41.7969 52.9844 37.6719 58.7812
Q33.5469 64.5938 27.3906 64.5938
Q21.3438 64.5938 17.7188 59.4688
Q13.1875 52.9375 13.1875 35.2969" id="ArialMT-30"/>
      </defs>
      <g transform="translate(46.8059867126 216.683863189)scale(0.12 -0.12)">
       <use xlink:href="#ArialMT-30"/>
      </g>
     </g>
    </g>
    <g id="xtick_2">
     <g id="line2d_7">
      <g>
       <use style="stroke:#000000;stroke-width:0.5;" x="111.118110236" xlink:href="#m93b0483c22" y="204.094488189"/>
      </g>
     </g>
     <g id="line2d_8">
      <g>
       <use style="stroke:#000000;stroke-width:0.5;" x="111.118110236" xlink:href="#m741efc42ff" y="22.6771653543"/>
      </g>
     </g>
     <g id="text_2">
      <!-- 2 -->
      <defs>
       <path d="
M50.3438 8.45312
L50.3438 0
L3.03125 0
Q2.9375 3.17188 4.04688 6.10938
Q5.85938 10.9375 9.82812 15.625
Q13.8125 20.3125 21.3438 26.4688
Q33.0156 36.0312 37.1094 41.625
Q41.2188 47.2188 41.2188 52.2031
Q41.2188 57.4219 37.4688 61
Q33.7344 64.5938 27.7344 64.5938
Q21.3906 64.5938 17.5781 60.7812
Q13.7656 56.9844 13.7188 50.25
L4.6875 51.1719
Q5.60938 61.2812 11.6562 66.5781
Q17.7188 71.875 27.9375 71.875
Q38.2344 71.875 44.2344 66.1562
Q50.25 60.4531 50.25 52
Q50.25 47.7031 48.4844 43.5469
Q46.7344 39.4062 42.6562 34.8125
Q38.5781 30.2188 29.1094 22.2188
Q21.1875 15.5781 18.9375 13.2031
Q16.7031 10.8438 15.2344 8.45312
z
" id="ArialMT-32"/>
      </defs>
      <g transform="translate(108.273735236 216.683863189)scale(0.12 -0.12)">
       <use xlink:href="#ArialMT-32"/>
      </g>
     </g>
    </g>
    <g id="xtick_3">
     <g id="line2d_9">
      <g>
       <use style="stroke:#000000;stroke-width:0.5;" x="172.62992126" xlink:href="#m93b0483c22" y="204.094488189"/>
      </g>
     </g>
     <g id="line2d_10">
      <g>
       <use style="stroke:#000000;stroke-width:0.5;" x="172.62992126" xlink:href="#m741efc42ff" y="22.6771653543"/>
      </g>
     </g>
     <g id="text_3">
      <!-- 4 -->
      <defs>
       <path d="
M32.3281 0
L32.3281 17.1406
L1.26562 17.1406
L1.26562 25.2031
L33.9375 71.5781
L41.1094 71.5781
L41.1094 25.2031
L50.7812 25.2031
L50.7812 17.1406
L41.1094 17.1406
L41.1094 0
z

M32.3281 25.2031
L32.3281 57.4688
L9.90625 25.2031
z
" id="ArialMT-34"/>
      </defs>
      <g transform="translate(169.65898376 216.683863189)scale(0.12 -0.12)">
       <use xlink:href="#ArialMT-34"/>
      </g>
     </g>
    </g>
    <g id="xtick_4">
     <g id="line2d_11">
      <g>
       <use style="stroke:#000000;stroke-width:0.5;" x="234.141732283" xlink:href="#m93b0483c22" y="204.094488189"/>
      </g>
     </g>
     <g id="line2d_12">
      <g>
       <use style="stroke:#000000;stroke-width:0.5;" x="234.141732283" xlink:href="#m741efc42ff" y="22.6771653543"/>
      </g>
     </g>
     <g id="text_4">
      <!-- 6 -->
      <defs>
       <path d="
M49.75 54.0469
L41.0156 53.375
Q39.8438 58.5469 37.7031 60.8906
Q34.125 64.6562 28.9062 64.6562
Q24.7031 64.6562 21.5312 62.3125
Q17.3906 59.2812 14.9844 53.4688
Q12.5938 47.6562 12.5 36.9219
Q15.6719 41.75 20.2656 44.0938
Q24.8594 46.4375 29.8906 46.4375
Q38.6719 46.4375 44.8438 39.9688
Q51.0312 33.5 51.0312 23.25
Q51.0312 16.5 48.125 10.7188
Q45.2188 4.9375 40.1406 1.85938
Q35.0625 -1.21875 28.6094 -1.21875
Q17.625 -1.21875 10.6875 6.85938
Q3.76562 14.9375 3.76562 33.5
Q3.76562 54.25 11.4219 63.6719
Q18.1094 71.875 29.4375 71.875
Q37.8906 71.875 43.2812 67.1406
Q48.6875 62.4062 49.75 54.0469
M13.875 23.1875
Q13.875 18.6562 15.7969 14.5
Q17.7188 10.3594 21.1875 8.17188
Q24.6562 6 28.4688 6
Q34.0312 6 38.0312 10.4844
Q42.0469 14.9844 42.0469 22.7031
Q42.0469 30.125 38.0781 34.3906
Q34.125 38.6719 28.125 38.6719
Q22.1719 38.6719 18.0156 34.3906
Q13.875 30.125 13.875 23.1875" id="ArialMT-36"/>
      </defs>
      <g transform="translate(231.305794783 216.683863189)scale(0.12 -0.12)">
       <use xlink:href="#ArialMT-36"/>
      </g>
     </g>
    </g>
    <g id="xtick_5">
     <g id="line2d_13">
      <g>
       <use style="stroke:#000000;stroke-width:0.5;" x="295.653543307" xlink:href="#m93b0483c22" y="204.094488189"/>
      </g>
     </g>
     <g id="line2d_14">
      <g>
       <use style="stroke:#000000;stroke-width:0.5;" x="295.653543307" xlink:href="#m741efc42ff" y="22.6771653543"/>
      </g>
     </g>
     <g id="text_5">
      <!-- 8 -->
      <defs>
       <path d="
M17.6719 38.8125
Q12.2031 40.8281 9.5625 44.5312
Q6.9375 48.25 6.9375 53.4219
Q6.9375 61.2344 12.5469 66.5469
Q18.1719 71.875 27.4844 71.875
Q36.8594 71.875 42.5781 66.4219
Q48.2969 60.9844 48.2969 53.1719
Q48.2969 48.1875 45.6719 44.5
Q43.0625 40.8281 37.75 38.8125
Q44.3438 36.6719 47.7812 31.875
Q51.2188 27.0938 51.2188 20.4531
Q51.2188 11.2812 44.7188 5.03125
Q38.2344 -1.21875 27.6406 -1.21875
Q17.0469 -1.21875 10.5469 5.04688
Q4.04688 11.3281 4.04688 20.7031
Q4.04688 27.6875 7.59375 32.3906
Q11.1406 37.1094 17.6719 38.8125
M15.9219 53.7188
Q15.9219 48.6406 19.1875 45.4062
Q22.4688 42.1875 27.6875 42.1875
Q32.7656 42.1875 36.0156 45.375
Q39.2656 48.5781 39.2656 53.2188
Q39.2656 58.0625 35.9062 61.3594
Q32.5625 64.6562 27.5938 64.6562
Q22.5625 64.6562 19.2344 61.4219
Q15.9219 58.2031 15.9219 53.7188
M13.0938 20.6562
Q13.0938 16.8906 14.875 13.375
Q16.6562 9.85938 20.1719 7.92188
Q23.6875 6 27.7344 6
Q34.0312 6 38.125 10.0469
Q42.2344 14.1094 42.2344 20.3594
Q42.2344 26.7031 38.0156 30.8594
Q33.7969 35.0156 27.4375 35.0156
Q21.2344 35.0156 17.1562 30.9062
Q13.0938 26.8125 13.0938 20.6562" id="ArialMT-38"/>
      </defs>
      <g transform="translate(292.823230807 216.683863189)scale(0.12 -0.12)">
       <use xlink:href="#ArialMT-38"/>
      </g>
     </g>
    </g>
    <g id="xtick_6">
     <g id="line2d_15">
      <g>
       <use style="stroke:#000000;stroke-width:0.5;" x="357.165354331" xlink:href="#m93b0483c22" y="204.094488189"/>
      </g>
     </g>
     <g id="line2d_16">
      <g>
       <use style="stroke:#000000;stroke-width:0.5;" x="357.165354331" xlink:href="#m741efc42ff" y="22.6771653543"/>
      </g>
     </g>
     <g id="text_6">
      <!-- 10 -->
      <defs>
       <path d="
M37.25 0
L28.4688 0
L28.4688 56
Q25.2969 52.9844 20.1406 49.9531
Q14.9844 46.9219 10.8906 45.4062
L10.8906 53.9062
Q18.2656 57.375 23.7812 62.2969
Q29.2969 67.2344 31.5938 71.875
L37.25 71.875
z
" id="ArialMT-31"/>
      </defs>
      <g transform="translate(351.432541831 216.683863189)scale(0.12 -0.12)">
       <use xlink:href="#ArialMT-31"/>
       <use x="55.615234375" xlink:href="#ArialMT-30"/>
      </g>
     </g>
    </g>
    <g id="text_7">
     <!-- time [s] -->
     <defs>
      <path d="
M42.0938 16.7031
L51.1719 15.5781
Q49.0312 7.625 43.2188 3.21875
Q37.4062 -1.17188 28.375 -1.17188
Q17 -1.17188 10.3281 5.82812
Q3.65625 12.8438 3.65625 25.4844
Q3.65625 38.5781 10.3906 45.7969
Q17.1406 53.0312 27.875 53.0312
Q38.2812 53.0312 44.875 45.9531
Q51.4688 38.875 51.4688 26.0312
Q51.4688 25.25 51.4219 23.6875
L12.75 23.6875
Q13.2344 15.1406 17.5781 10.5938
Q21.9219 6.0625 28.4219 6.0625
Q33.25 6.0625 36.6719 8.59375
Q40.0938 11.1406 42.0938 16.7031
M13.2344 30.9062
L42.1875 30.9062
Q41.6094 37.4531 38.875 40.7188
Q34.6719 45.7969 27.9844 45.7969
Q21.9219 45.7969 17.7969 41.75
Q13.6719 37.7031 13.2344 30.9062" id="ArialMT-65"/>
      <path d="
M25.7812 7.85938
L27.0469 0.09375
Q23.3438 -0.6875 20.4062 -0.6875
Q15.625 -0.6875 12.9844 0.828125
Q10.3594 2.34375 9.28125 4.8125
Q8.20312 7.28125 8.20312 15.1875
L8.20312 45.0156
L1.76562 45.0156
L1.76562 51.8594
L8.20312 51.8594
L8.20312 64.7031
L16.9375 69.9688
L16.9375 51.8594
L25.7812 51.8594
L25.7812 45.0156
L16.9375 45.0156
L16.9375 14.7031
Q16.9375 10.9375 17.4062 9.85938
Q17.875 8.79688 18.9219 8.15625
Q19.9688 7.51562 21.9219 7.51562
Q23.3906 7.51562 25.7812 7.85938" id="ArialMT-74"/>
      <path d="
M6.64062 61.4688
L6.64062 71.5781
L15.4375 71.5781
L15.4375 61.4688
z

M6.64062 0
L6.64062 51.8594
L15.4375 51.8594
L15.4375 0
z
" id="ArialMT-69"/>
      <path d="
M3.07812 15.4844
L11.7656 16.8438
Q12.5 11.625 15.8438 8.84375
Q19.1875 6.0625 25.2031 6.0625
Q31.25 6.0625 34.1719 8.51562
Q37.1094 10.9844 37.1094 14.3125
Q37.1094 17.2812 34.5156 19
Q32.7188 20.1719 25.5312 21.9688
Q15.875 24.4219 12.1406 26.2031
Q8.40625 27.9844 6.46875 31.125
Q4.54688 34.2812 4.54688 38.0938
Q4.54688 41.5469 6.125 44.5
Q7.71875 47.4688 10.4531 49.4219
Q12.5 50.9219 16.0312 51.9688
Q19.5781 53.0312 23.6406 53.0312
Q29.7344 53.0312 34.3438 51.2656
Q38.9688 49.5156 41.1562 46.5
Q43.3594 43.5 44.1875 38.4844
L35.5938 37.3125
Q35.0156 41.3125 32.2031 43.5469
Q29.3906 45.7969 24.2656 45.7969
Q18.2188 45.7969 15.625 43.7969
Q13.0312 41.7969 13.0312 39.1094
Q13.0312 37.4062 14.1094 36.0312
Q15.1875 34.625 17.4844 33.6875
Q18.7969 33.2031 25.25 31.4531
Q34.5781 28.9531 38.25 27.3594
Q41.9375 25.7812 44.0312 22.75
Q46.1406 19.7344 46.1406 15.2344
Q46.1406 10.8438 43.5781 6.95312
Q41.0156 3.07812 36.1719 0.953125
Q31.3438 -1.17188 25.25 -1.17188
Q15.1406 -1.17188 9.84375 3.03125
Q4.54688 7.23438 3.07812 15.4844" id="ArialMT-73"/>
      <path d="
M6.59375 0
L6.59375 51.8594
L14.4531 51.8594
L14.4531 44.5781
Q16.8906 48.3906 20.9375 50.7031
Q25 53.0312 30.1719 53.0312
Q35.9375 53.0312 39.625 50.6406
Q43.3125 48.25 44.8281 43.9531
Q50.9844 53.0312 60.8438 53.0312
Q68.5625 53.0312 72.7031 48.75
Q76.8594 44.4844 76.8594 35.5938
L76.8594 0
L68.1094 0
L68.1094 32.6719
Q68.1094 37.9375 67.25 40.25
Q66.4062 42.5781 64.1562 43.9844
Q61.9219 45.4062 58.8906 45.4062
Q53.4219 45.4062 49.7969 41.7656
Q46.1875 38.1406 46.1875 30.125
L46.1875 0
L37.4062 0
L37.4062 33.6875
Q37.4062 39.5469 35.25 42.4688
Q33.1094 45.4062 28.2188 45.4062
Q24.5156 45.4062 21.3594 43.4531
Q18.2188 41.5 16.7969 37.7344
Q15.375 33.9844 15.375 26.9062
L15.375 0
z
" id="ArialMT-6d"/>
      <path d="
M6.78125 -19.875
L6.78125 71.5781
L26.1719 71.5781
L26.1719 64.3125
L15.5781 64.3125
L15.5781 -12.5938
L26.1719 -12.5938
L26.1719 -19.875
z
" id="ArialMT-5b"/>
      <path d="
M21.2969 -19.875
L1.90625 -19.875
L1.90625 -12.5938
L12.5 -12.5938
L12.5 64.3125
L1.90625 64.3125
L1.90625 71.5781
L21.2969 71.5781
z
" id="ArialMT-5d"/>
      <path id="ArialMT-20"/>
     </defs>
     <g transform="translate(184.439889272 232.658238189)scale(0.12 -0.12)">
      <use xlink:href="#ArialMT-74"/>
      <use x="27.783203125" xlink:href="#ArialMT-69"/>
      <use x="50.0" xlink:href="#ArialMT-6d"/>
      <use x="133.30078125" xlink:href="#ArialMT-65"/>
      <use x="188.916015625" xlink:href="#ArialMT-20"/>
      <use x="216.69921875" xlink:href="#ArialMT-5b"/>
      <use x="244.482421875" xlink:href="#ArialMT-73"/>
      <use x="294.482421875" xlink:href="#ArialMT-5d"/>
     </g>
    </g>
   </g>
   <g id="matplotlib.axis_2">
    <g id="ytick_1">
     <g id="line2d_17">
      <defs>
       <path d="
M0 0
L4 0" id="m728421d6d4" style="stroke:#000000;stroke-width:0.5;"/>
      </defs>
      <g>
       <use style="stroke:#000000;stroke-width:0.5;" x="49.6062992126" xlink:href="#m728421d6d4" y="204.094488189"/>
      </g>
     </g>
     <g id="line2d_18">
      <defs>
       <path d="
M0 0
L-4 0" id="mcb0005524f" style="stroke:#000000;stroke-width:0.5;"/>
      </defs>
      <g>
       <use style="stroke:#000000;stroke-width:0.5;" x="357.165354331" xlink:href="#mcb0005524f" y="204.094488189"/>
      </g>
     </g>
     <g id="text_8">
      <!-- 0 -->
      <g transform="translate(40.0056742126 207.196675689)scale(0.12 -0.12)">
       <use xlink:href="#ArialMT-30"/>
      </g>
     </g>
    </g>
    <g id="ytick_2">
     <g id="line2d_19">
      <g>
       <use style="stroke:#000000;stroke-width:0.5;" x="49.6062992126" xlink:href="#m728421d6d4" y="167.811023622"/>
      </g>
     </g>
     <g id="line2d_20">
      <g>
       <use style="stroke:#000000;stroke-width:0.5;" x="357.165354331" xlink:href="#mcb0005524f" y="167.811023622"/>
      </g>
     </g>
     <g id="text_9">
      <!-- 2 -->
      <g transform="translate(39.9175492126 170.913211122)scale(0.12 -0.12)">
       <use xlink:href="#ArialMT-32"/>
      </g>
     </g>
    </g>
    <g id="ytick_3">
     <g id="line2d_21">
      <g>
       <use style="stroke:#000000;stroke-width:0.5;" x="49.6062992126" xlink:href="#m728421d6d4" y="131.527559055"/>
      </g>
     </g>
     <g id="line2d_22">
      <g>
       <use style="stroke:#000000;stroke-width:0.5;" x="357.165354331" xlink:href="#mcb0005524f" y="131.527559055"/>
      </g>
     </g>
     <g id="text_10">
      <!-- 4 -->
      <g transform="translate(39.6644242126 134.629746555)scale(0.12 -0.12)">
       <use xlink:href="#ArialMT-34"/>
      </g>
     </g>
    </g>
    <g id="ytick_4">
     <g id="line2d_23">
      <g>
       <use style="stroke:#000000;stroke-width:0.5;" x="49.6062992126" xlink:href="#m728421d6d4" y="95.2440944882"/>
      </g>
     </g>
     <g id="line2d_24">
      <g>
       <use style="stroke:#000000;stroke-width:0.5;" x="357.165354331" xlink:href="#mcb0005524f" y="95.2440944882"/>
      </g>
     </g>
     <g id="text_11">
      <!-- 6 -->
      <g transform="translate(39.9344242126 98.3462819882)scale(0.12 -0.12)">
       <use xlink:href="#ArialMT-36"/>
      </g>
     </g>
    </g>
    <g id="ytick_5">
     <g id="line2d_25">
      <g>
       <use style="stroke:#000000;stroke-width:0.5;" x="49.6062992126" xlink:href="#m728421d6d4" y="58.9606299213"/>
      </g>
     </g>
     <g id="line2d_26">
      <g>
       <use style="stroke:#000000;stroke-width:0.5;" x="357.165354331" xlink:href="#mcb0005524f" y="58.9606299213"/>
      </g>
     </g>
     <g id="text_12">
      <!-- 8 -->
      <g transform="translate(39.9456742126 62.0628174213)scale(0.12 -0.12)">
       <use xlink:href="#ArialMT-38"/>
      </g>
     </g>
    </g>
    <g id="ytick_6">
     <g id="line2d_27">
      <g>
       <use style="stroke:#000000;stroke-width:0.5;" x="49.6062992126" xlink:href="#m728421d6d4" y="22.6771653543"/>
      </g>
     </g>
     <g id="line2d_28">
      <g>
       <use style="stroke:#000000;stroke-width:0.5;" x="357.165354331" xlink:href="#mcb0005524f" y="22.6771653543"/>
      </g>
     </g>
     <g id="text_13">
      <!-- 10 -->
      <g transform="translate(34.1406742126 25.7793528543)scale(0.12 -0.12)">
       <use xlink:href="#ArialMT-31"/>
       <use x="55.615234375" xlink:href="#ArialMT-30"/>
      </g>
     </g>
    </g>
    <g id="text_14">
     <!-- spike rate [Hz] -->
     <defs>
      <path d="
M8.01562 0
L8.01562 71.5781
L17.4844 71.5781
L17.4844 42.1875
L54.6875 42.1875
L54.6875 71.5781
L64.1562 71.5781
L64.1562 0
L54.6875 0
L54.6875 33.7344
L17.4844 33.7344
L17.4844 0
z
" id="ArialMT-48"/>
      <path d="
M40.4375 6.39062
Q35.5469 2.25 31.0312 0.53125
Q26.5156 -1.17188 21.3438 -1.17188
Q12.7969 -1.17188 8.20312 3
Q3.60938 7.17188 3.60938 13.6719
Q3.60938 17.4844 5.34375 20.625
Q7.07812 23.7812 9.89062 25.6875
Q12.7031 27.5938 16.2188 28.5625
Q18.7969 29.25 24.0312 29.8906
Q34.6719 31.1562 39.7031 32.9062
Q39.75 34.7188 39.75 35.2031
Q39.75 40.5781 37.25 42.7812
Q33.8906 45.75 27.25 45.75
Q21.0469 45.75 18.0938 43.5781
Q15.1406 41.4062 13.7188 35.8906
L5.125 37.0625
Q6.29688 42.5781 8.98438 45.9688
Q11.6719 49.3594 16.75 51.1875
Q21.8281 53.0312 28.5156 53.0312
Q35.1562 53.0312 39.2969 51.4688
Q43.4531 49.9062 45.4062 47.5312
Q47.3594 45.1719 48.1406 41.5469
Q48.5781 39.3125 48.5781 33.4531
L48.5781 21.7344
Q48.5781 9.46875 49.1406 6.21875
Q49.7031 2.98438 51.375 0
L42.1875 0
Q40.8281 2.73438 40.4375 6.39062
M39.7031 26.0312
Q34.9062 24.0781 25.3438 22.7031
Q19.9219 21.9219 17.6719 20.9375
Q15.4375 19.9688 14.2031 18.0938
Q12.9844 16.2188 12.9844 13.9219
Q12.9844 10.4062 15.6406 8.0625
Q18.3125 5.71875 23.4375 5.71875
Q28.5156 5.71875 32.4688 7.9375
Q36.4219 10.1562 38.2812 14.0156
Q39.7031 17 39.7031 22.7969
z
" id="ArialMT-61"/>
      <path d="
M6.59375 -19.875
L6.59375 51.8594
L14.5938 51.8594
L14.5938 45.125
Q17.4375 49.0781 21 51.0469
Q24.5625 53.0312 29.6406 53.0312
Q36.2812 53.0312 41.3594 49.6094
Q46.4375 46.1875 49.0156 39.9531
Q51.6094 33.7344 51.6094 26.3125
Q51.6094 18.3594 48.75 11.9844
Q45.9062 5.60938 40.4531 2.21875
Q35.0156 -1.17188 29 -1.17188
Q24.6094 -1.17188 21.1094 0.6875
Q17.625 2.54688 15.375 5.375
L15.375 -19.875
z

M14.5469 25.6406
Q14.5469 15.625 18.5938 10.8438
Q22.6562 6.0625 28.4219 6.0625
Q34.2812 6.0625 38.4531 11.0156
Q42.625 15.9688 42.625 26.375
Q42.625 36.2812 38.5469 41.2031
Q34.4688 46.1406 28.8125 46.1406
Q23.1875 46.1406 18.8594 40.8906
Q14.5469 35.6406 14.5469 25.6406" id="ArialMT-70"/>
      <path d="
M6.5 0
L6.5 51.8594
L14.4062 51.8594
L14.4062 44
Q17.4375 49.5156 20 51.2656
Q22.5625 53.0312 25.6406 53.0312
Q30.0781 53.0312 34.6719 50.2031
L31.6406 42.0469
Q28.4219 43.9531 25.2031 43.9531
Q22.3125 43.9531 20.0156 42.2188
Q17.7188 40.4844 16.75 37.4062
Q15.2812 32.7188 15.2812 27.1562
L15.2812 0
z
" id="ArialMT-72"/>
      <path d="
M6.64062 0
L6.64062 71.5781
L15.4375 71.5781
L15.4375 30.7656
L36.2344 51.8594
L47.6094 51.8594
L27.7812 32.625
L49.6094 0
L38.7656 0
L21.625 26.5156
L15.4375 20.5625
L15.4375 0
z
" id="ArialMT-6b"/>
      <path d="
M1.95312 0
L1.95312 7.125
L34.9688 45.0156
Q29.3438 44.7344 25.0469 44.7344
L3.90625 44.7344
L3.90625 51.8594
L46.2969 51.8594
L46.2969 46.0469
L18.2188 13.1406
L12.7969 7.125
Q18.7031 7.5625 23.875 7.5625
L47.8594 7.5625
L47.8594 0
z
" id="ArialMT-7a"/>
     </defs>
     <g transform="translate(26.7556742126 151.341451772)rotate(-90.0)scale(0.12 -0.12)">
      <use xlink:href="#ArialMT-73"/>
      <use x="50.0" xlink:href="#ArialMT-70"/>
      <use x="105.615234375" xlink:href="#ArialMT-69"/>
      <use x="127.83203125" xlink:href="#ArialMT-6b"/>
      <use x="177.83203125" xlink:href="#ArialMT-65"/>
      <use x="233.447265625" xlink:href="#ArialMT-20"/>
      <use x="261.23046875" xlink:href="#ArialMT-72"/>
      <use x="294.53125" xlink:href="#ArialMT-61"/>
      <use x="350.146484375" xlink:href="#ArialMT-74"/>
      <use x="377.9296875" xlink:href="#ArialMT-65"/>
      <use x="433.544921875" xlink:href="#ArialMT-20"/>
      <use x="461.328125" xlink:href="#ArialMT-5b"/>
      <use x="489.111328125" xlink:href="#ArialMT-48"/>
      <use x="561.328125" xlink:href="#ArialMT-7a"/>
      <use x="611.328125" xlink:href="#ArialMT-5d"/>
     </g>
    </g>
   </g>
   <g id="patch_3">
    <path d="
M49.6063 22.6772
L357.165 22.6772" style="fill:none;stroke:#000000;"/>
   </g>
   <g id="patch_4">
    <path d="
M357.165 204.094
L357.165 22.6772" style="fill:none;stroke:#000000;"/>
   </g>
   <g id="patch_5">
    <path d="
M49.6063 204.094
L357.165 204.094" style="fill:none;stroke:#000000;"/>
   </g>
   <g id="patch_6">
    <path d="
M49.6063 204.094
L49.6063 22.6772" style="fill:none;stroke:#000000;"/>
   </g>
   <g id="text_15">
    <!-- firing rate [nix.data.sampled.spike_rate] -->
    <defs>
     <path d="
M0.734375 0
L19.6719 26.9531
L2.15625 51.8594
L13.1406 51.8594
L21.0938 39.7031
Q23.3438 36.2344 24.7031 33.8906
Q26.8594 37.1094 28.6562 39.5938
L37.4062 51.8594
L47.9062 51.8594
L29.9844 27.4375
L49.2656 0
L38.4844 0
L27.8281 16.1094
L25 20.4531
L11.375 0
z
" id="ArialMT-78"/>
     <path d="
M8.6875 0
L8.6875 45.0156
L0.921875 45.0156
L0.921875 51.8594
L8.6875 51.8594
L8.6875 57.375
Q8.6875 62.5938 9.625 65.1406
Q10.8906 68.5625 14.0781 70.6719
Q17.2812 72.7969 23.0469 72.7969
Q26.7656 72.7969 31.25 71.9219
L29.9375 64.2656
Q27.2031 64.75 24.75 64.75
Q20.75 64.75 19.0938 63.0312
Q17.4375 61.3281 17.4375 56.6406
L17.4375 51.8594
L27.5469 51.8594
L27.5469 45.0156
L17.4375 45.0156
L17.4375 0
z
" id="ArialMT-66"/>
     <path d="
M40.2344 0
L40.2344 6.54688
Q35.2969 -1.17188 25.7344 -1.17188
Q19.5312 -1.17188 14.3281 2.25
Q9.125 5.67188 6.26562 11.7969
Q3.42188 17.9219 3.42188 25.875
Q3.42188 33.6406 6 39.9688
Q8.59375 46.2969 13.7656 49.6562
Q18.9531 53.0312 25.3438 53.0312
Q30.0312 53.0312 33.6875 51.0469
Q37.3594 49.0781 39.6562 45.9062
L39.6562 71.5781
L48.3906 71.5781
L48.3906 0
z

M12.4531 25.875
Q12.4531 15.9219 16.6406 10.9844
Q20.8438 6.0625 26.5625 6.0625
Q32.3281 6.0625 36.3438 10.7656
Q40.375 15.4844 40.375 25.1406
Q40.375 35.7969 36.2656 40.7656
Q32.1719 45.75 26.1719 45.75
Q20.3125 45.75 16.375 40.9688
Q12.4531 36.1875 12.4531 25.875" id="ArialMT-64"/>
     <path d="
M9.07812 0
L9.07812 10.0156
L19.0938 10.0156
L19.0938 0
z
" id="ArialMT-2e"/>
     <path d="
M6.39062 0
L6.39062 71.5781
L15.1875 71.5781
L15.1875 0
z
" id="ArialMT-6c"/>
     <path d="
M6.59375 0
L6.59375 51.8594
L14.5 51.8594
L14.5 44.4844
Q20.2188 53.0312 31 53.0312
Q35.6875 53.0312 39.625 51.3438
Q43.5625 49.6562 45.5156 46.9219
Q47.4688 44.1875 48.25 40.4375
Q48.7344 37.9844 48.7344 31.8906
L48.7344 0
L39.9375 0
L39.9375 31.5469
Q39.9375 36.9219 38.9062 39.5781
Q37.8906 42.2344 35.2812 43.8125
Q32.6719 45.4062 29.1562 45.4062
Q23.5312 45.4062 19.4531 41.8438
Q15.375 38.2812 15.375 28.3281
L15.375 0
z
" id="ArialMT-6e"/>
     <path d="
M4.98438 -4.29688
L13.5312 -5.5625
Q14.0625 -9.51562 16.5 -11.3281
Q19.7812 -13.7656 25.4375 -13.7656
Q31.5469 -13.7656 34.8594 -11.3281
Q38.1875 -8.89062 39.3594 -4.5
Q40.0469 -1.8125 39.9844 6.78125
Q34.2344 0 25.6406 0
Q14.9375 0 9.07812 7.71875
Q3.21875 15.4375 3.21875 26.2188
Q3.21875 33.6406 5.90625 39.9062
Q8.59375 46.1875 13.6875 49.6094
Q18.7969 53.0312 25.6875 53.0312
Q34.8594 53.0312 40.8281 45.6094
L40.8281 51.8594
L48.9219 51.8594
L48.9219 7.03125
Q48.9219 -5.07812 46.4531 -10.125
Q44 -15.1875 38.6406 -18.1094
Q33.2969 -21.0469 25.4844 -21.0469
Q16.2188 -21.0469 10.5 -16.875
Q4.78125 -12.7031 4.98438 -4.29688
M12.25 26.8594
Q12.25 16.6562 16.2969 11.9688
Q20.3594 7.28125 26.4688 7.28125
Q32.5156 7.28125 36.6094 11.9375
Q40.7188 16.6094 40.7188 26.5625
Q40.7188 36.0781 36.5 40.9062
Q32.2812 45.75 26.3125 45.75
Q20.4531 45.75 16.3438 40.9844
Q12.25 36.2344 12.25 26.8594" id="ArialMT-67"/>
     <path d="
M-1.51562 -19.875
L-1.51562 -13.5312
L56.7344 -13.5312
L56.7344 -19.875
z
" id="ArialMT-5f"/>
    </defs>
    <g transform="translate(78.1958267717 17.6771653543)scale(0.144 -0.144)">
     <use xlink:href="#ArialMT-66"/>
     <use x="27.783203125" xlink:href="#ArialMT-69"/>
     <use x="50.0" xlink:href="#ArialMT-72"/>
     <use x="83.30078125" xlink:href="#ArialMT-69"/>
     <use x="105.517578125" xlink:href="#ArialMT-6e"/>
     <use x="161.1328125" xlink:href="#ArialMT-67"/>
     <use x="216.748046875" xlink:href="#ArialMT-20"/>
     <use x="244.53125" xlink:href="#ArialMT-72"/>
     <use x="277.83203125" xlink:href="#ArialMT-61"/>
     <use x="333.447265625" xlink:href="#ArialMT-74"/>
     <use x="361.23046875" xlink:href="#ArialMT-65"/>
     <use x="416.845703125" xlink:href="#ArialMT-20"/>
     <use x="444.62890625" xlink:href="#ArialMT-5b"/>
     <use x="472.412109375" xlink:href="#ArialMT-6e"/>
     <use x="528.02734375" xlink:href="#ArialMT-69"/>
     <use x="550.244140625" xlink:href="#ArialMT-78"/>
     <use x="600.244140625" xlink:href="#ArialMT-2e"/>
     <use x="628.02734375" xlink:href="#ArialMT-64"/>
     <use x="683.642578125" xlink:href="#ArialMT-61"/>
     <use x="739.2578125" xlink:href="#ArialMT-74"/>
     <use x="767.041015625" xlink:href="#ArialMT-61"/>
     <use x="822.65625" xlink:href="#ArialMT-2e"/>
     <use x="850.439453125" xlink:href="#ArialMT-73"/>
     <use x="900.439453125" xlink:href="#ArialMT-61"/>
     <use x="956.0546875" xlink:href="#ArialMT-6d"/>
     <use x="1039.35546875" xlink:href="#ArialMT-70"/>
     <use x="1094.97070312" xlink:href="#ArialMT-6c"/>
     <use x="1117.1875" xlink:href="#ArialMT-65"/>
     <use x="1172.80273438" xlink:href="#ArialMT-64"/>
     <use x="1228.41796875" xlink:href="#ArialMT-2e"/>
     <use x="1256.20117188" xlink:href="#ArialMT-73"/>
     <use x="1306.20117188" xlink:href="#ArialMT-70"/>
     <use x="1361.81640625" xlink:href="#ArialMT-69"/>
     <use x="1384.03320312" xlink:href="#ArialMT-6b"/>
     <use x="1434.03320312" xlink:href="#ArialMT-65"/>
     <use x="1489.6484375" xlink:href="#ArialMT-5f"/>
     <use x="1545.26367188" xlink:href="#ArialMT-72"/>
     <use x="1578.56445312" xlink:href="#ArialMT-61"/>
     <use x="1634.1796875" xlink:href="#ArialMT-74"/>
     <use x="1661.96289062" xlink:href="#ArialMT-65"/>
     <use x="1717.578125" xlink:href="#ArialMT-5d"/>
    </g>
   </g>
   <g id="legend_1">
    <g id="patch_7">
     <path d="
M265.966 116.376
L349.965 116.376
L349.965 29.8772
L265.966 29.8772
L265.966 116.376
z
" style="fill:#ffffff;stroke:#000000;"/>
    </g>
    <g id="line2d_29">
     <path d="
M276.046 41.0799
L296.206 41.0799" style="fill:none;stroke:#0000ff;stroke-linecap:square;"/>
    </g>
    <g id="line2d_30"/>
    <g id="text_16">
     <!-- frq: 1 -->
     <defs>
      <path d="
M9.03125 41.8438
L9.03125 51.8594
L19.0469 51.8594
L19.0469 41.8438
z

M9.03125 0
L9.03125 10.0156
L19.0469 10.0156
L19.0469 0
z
" id="ArialMT-3a"/>
      <path d="
M39.6562 -19.875
L39.6562 5.51562
Q37.5938 2.64062 33.9062 0.734375
Q30.2188 -1.17188 26.0781 -1.17188
Q16.8438 -1.17188 10.1719 6.20312
Q3.51562 13.5781 3.51562 26.4219
Q3.51562 34.2344 6.21875 40.4219
Q8.9375 46.625 14.0781 49.8281
Q19.2344 53.0312 25.3906 53.0312
Q35.0156 53.0312 40.5312 44.9219
L40.5312 51.8594
L48.4375 51.8594
L48.4375 -19.875
z

M12.5469 26.0781
Q12.5469 16.0625 16.75 11.0625
Q20.9531 6.0625 26.8125 6.0625
Q32.4219 6.0625 36.4688 10.8125
Q40.5312 15.5781 40.5312 25.2969
Q40.5312 35.6406 36.25 40.8594
Q31.9844 46.0938 26.2188 46.0938
Q20.5156 46.0938 16.5312 41.2344
Q12.5469 36.375 12.5469 26.0781" id="ArialMT-71"/>
     </defs>
     <g transform="translate(312.046104331 46.1199153543)scale(0.144 -0.144)">
      <use xlink:href="#ArialMT-66"/>
      <use x="27.783203125" xlink:href="#ArialMT-72"/>
      <use x="61.083984375" xlink:href="#ArialMT-71"/>
      <use x="116.69921875" xlink:href="#ArialMT-3a"/>
      <use x="144.482421875" xlink:href="#ArialMT-20"/>
      <use x="172.265625" xlink:href="#ArialMT-31"/>
     </g>
    </g>
    <g id="line2d_31">
     <path d="
M276.046 61.6247
L296.206 61.6247" style="fill:none;stroke:#008000;stroke-linecap:square;"/>
    </g>
    <g id="line2d_32"/>
    <g id="text_17">
     <!-- frq: 2 -->
     <g transform="translate(312.046104331 66.6646653543)scale(0.144 -0.144)">
      <use xlink:href="#ArialMT-66"/>
      <use x="27.783203125" xlink:href="#ArialMT-72"/>
      <use x="61.083984375" xlink:href="#ArialMT-71"/>
      <use x="116.69921875" xlink:href="#ArialMT-3a"/>
      <use x="144.482421875" xlink:href="#ArialMT-20"/>
      <use x="172.265625" xlink:href="#ArialMT-32"/>
     </g>
    </g>
    <g id="line2d_33">
     <path d="
M276.046 82.1694
L296.206 82.1694" style="fill:none;stroke:#ff0000;stroke-linecap:square;"/>
    </g>
    <g id="line2d_34"/>
    <g id="text_18">
     <!-- frq: 3 -->
     <defs>
      <path d="
M4.20312 18.8906
L12.9844 20.0625
Q14.5 12.5938 18.1406 9.29688
Q21.7812 6 27 6
Q33.2031 6 37.4688 10.2969
Q41.75 14.5938 41.75 20.9531
Q41.75 27 37.7969 30.9219
Q33.8438 34.8594 27.7344 34.8594
Q25.25 34.8594 21.5312 33.8906
L22.5156 41.6094
Q23.3906 41.5 23.9219 41.5
Q29.5469 41.5 34.0312 44.4219
Q38.5312 47.3594 38.5312 53.4688
Q38.5312 58.2969 35.25 61.4688
Q31.9844 64.6562 26.8125 64.6562
Q21.6875 64.6562 18.2656 61.4219
Q14.8438 58.2031 13.875 51.7656
L5.07812 53.3281
Q6.6875 62.1562 12.3906 67.0156
Q18.1094 71.875 26.6094 71.875
Q32.4688 71.875 37.3906 69.3594
Q42.3281 66.8438 44.9375 62.5
Q47.5625 58.1562 47.5625 53.2656
Q47.5625 48.6406 45.0625 44.8281
Q42.5781 41.0156 37.7031 38.7656
Q44.0469 37.3125 47.5625 32.6875
Q51.0781 28.0781 51.0781 21.1406
Q51.0781 11.7656 44.2344 5.25
Q37.4062 -1.26562 26.9531 -1.26562
Q17.5312 -1.26562 11.2969 4.34375
Q5.07812 9.96875 4.20312 18.8906" id="ArialMT-33"/>
     </defs>
     <g transform="translate(312.046104331 87.2094153543)scale(0.144 -0.144)">
      <use xlink:href="#ArialMT-66"/>
      <use x="27.783203125" xlink:href="#ArialMT-72"/>
      <use x="61.083984375" xlink:href="#ArialMT-71"/>
      <use x="116.69921875" xlink:href="#ArialMT-3a"/>
      <use x="144.482421875" xlink:href="#ArialMT-20"/>
      <use x="172.265625" xlink:href="#ArialMT-33"/>
     </g>
    </g>
    <g id="line2d_35">
     <path d="
M276.046 102.714
L296.206 102.714" style="fill:none;stroke:#00bfbf;stroke-linecap:square;"/>
    </g>
    <g id="line2d_36"/>
    <g id="text_19">
     <!-- frq: 4 -->
     <g transform="translate(312.046104331 107.754165354)scale(0.144 -0.144)">
      <use xlink:href="#ArialMT-66"/>
      <use x="27.783203125" xlink:href="#ArialMT-72"/>
      <use x="61.083984375" xlink:href="#ArialMT-71"/>
      <use x="116.69921875" xlink:href="#ArialMT-3a"/>
      <use x="144.482421875" xlink:href="#ArialMT-20"/>
      <use x="172.265625" xlink:href="#ArialMT-34"/>
     </g>
    </g>
   </g>
  </g>
 </g>
 <defs>
  <clipPath id="p579cb87372">
   <rect height="181.417322835" width="307.559055118" x="49.6062992126" y="22.6771653543"/>
  </clipPath>
 </defs>
</svg>
